<svg xmlns="http://www.w3.org/2000/svg" viewBox="0 0 64 64">
  <defs>
    <linearGradient id="p" x1="0" y1="0" x2="0" y2="1">
      <stop offset="0" stop-color="#FBFAF7"/>
      <stop offset="1" stop-color="#EFF3F3"/>
    </linearGradient>
  </defs>
  <rect x="1" y="1" width="62" height="62" rx="15" fill="url(#p)" stroke="#D6E3E4" stroke-width="1.5"/>
  <g fill="#4E6F74" transform="translate(0 1.5)">
    <circle cx="32" cy="32" r="19"/>
    <circle cx="32" cy="12.5" r="4.6"/><circle cx="41.75" cy="15.1" r="4.6"/><circle cx="48.9" cy="22.25" r="4.6"/>
    <circle cx="51.5" cy="32" r="4.6"/><circle cx="48.9" cy="41.75" r="4.6"/><circle cx="41.75" cy="48.9" r="4.6"/>
    <circle cx="32" cy="51.5" r="4.6"/><circle cx="22.25" cy="48.9" r="4.6"/><circle cx="15.1" cy="41.75" r="4.6"/>
    <circle cx="12.5" cy="32" r="4.6"/><circle cx="15.1" cy="22.25" r="4.6"/><circle cx="22.25" cy="15.1" r="4.6"/>
  </g>
  <g fill="#6F9196">
    <circle cx="32" cy="32" r="19"/>
    <circle cx="32" cy="12.5" r="4.6"/><circle cx="41.75" cy="15.1" r="4.6"/><circle cx="48.9" cy="22.25" r="4.6"/>
    <circle cx="51.5" cy="32" r="4.6"/><circle cx="48.9" cy="41.75" r="4.6"/><circle cx="41.75" cy="48.9" r="4.6"/>
    <circle cx="32" cy="51.5" r="4.6"/><circle cx="22.25" cy="48.9" r="4.6"/><circle cx="15.1" cy="41.75" r="4.6"/>
    <circle cx="12.5" cy="32" r="4.6"/><circle cx="15.1" cy="22.25" r="4.6"/><circle cx="22.25" cy="15.1" r="4.6"/>
  </g>
  <circle cx="32" cy="32" r="14.5" fill="none" stroke="#A3BCBF" stroke-width="1" opacity="0.9"/>
  <g fill="none" stroke="#EDF3F3" stroke-width="2.3" stroke-linecap="round" stroke-linejoin="round">
    <path d="M24.5 24.5 V40"/>
    <path d="M24.5 24.5 H28.5 A4 4 0 0 1 28.5 32.5 H24.5"/>
    <path d="M33.5 24.5 H42"/>
    <path d="M37.75 24.5 V40"/>
  </g>
</svg>
